# xmcd
#
# Track frame offsets:
#	150
#	16050
#	32544
#	46728
#	62828
#	76217
#	89287
#	105736
#	119554
#	132768
#	147580
#	160873
#	173904
#	191603
#	208193
#	224432
#	239141
#	258025
#	276422
#	297717
#
# Disc length: 4157 seconds
#
# Revision: 1
# Processed by: cddbd v1.5.2PL0 Copyright (c) Steve Scherf et al.
# Submitted via: audiograbber 1.83.01
#
DISCID=2f103b14
DTITLE=Various Artist - CDX 654
DYEAR=2017
DGENRE=Country
TTITLE0=Ashley McBryde - A Little Dive Bar In Dahlonega
TTITLE1=Tyminski - Bloodline
TTITLE2=Lady Antebellum - Heart Break
TTITLE3=Morgan Evans - Kiss Somebody
TTITLE4=Luke Bryan - Light It Up
TTITLE5=Jackson Michelson - Rollin'
TTITLE6=Billy Currington - Wake Me Up
TTITLE7=Eric Chesser - YES
TTITLE8=Re Mattei - Bump Bump Bump
TTITLE9=Trailerhawk - Car
TTITLE10=Maddie Hunt - Crank It Up
TTITLE11=Richard Schroder - Drivin'
TTITLE12=Jared Blake - Dont Let Her Be Gone 
TTITLE13=Dugger Band - East Tennessee Son
TTITLE14=Don Woods Jr. - Everyday Heroes
TTITLE15=Darren Taylor - Hillbilly Way
TTITLE16=Natalie Alexander - I Don't Want To Catch My Breath
TTITLE17=Jazelle Paris and David Garfield Band - I Lied 
TTITLE18=Lefroy - Knockin' On Heaven's Door
TTITLE19=Craig Wayne Boyd - Stuck In My Head
EXTD=
EXTT0=
EXTT1=
EXTT2=
EXTT3=
EXTT4=
EXTT5=
EXTT6=
EXTT7=
EXTT8=
EXTT9=
EXTT10=
EXTT11=
EXTT12=
EXTT13=
EXTT14=
EXTT15=
EXTT16=
EXTT17=
EXTT18=
EXTT19=
PLAYORDER=
